<?xml version="1.0" encoding="UTF-8"?>
<svg id="Layer_1" xmlns="http://www.w3.org/2000/svg" version="1.1" viewBox="0 0 43.6 49.8">
  <!-- Generator: Adobe Illustrator 29.1.0, SVG Export Plug-In . SVG Version: 2.1.0 Build 142)  -->
  <path d="M43.5,13.1c.2-.5-.1-1.1-.7-1.2,0,0,0,0,0,0,0,0-.2-.1-.2-.2L22.8.3c-.6-.4-1.4-.4-2,0l-9.2,5.3-5.7,3.3h0s-4.9,2.8-4.9,2.8c0,0-.2.1-.2.2-.5.1-.9.7-.7,1.2,0,0,0,0,0,0,0,.1,0,.2,0,.3v22.8c0,.7.4,1.4,1,1.7l19.8,11.4c0,0,.2,0,.3.1.4.4,1,.4,1.4,0,0,0,0,0,0,0,0,0,.2,0,.3-.1l19.8-11.4c.6-.4,1-1,1-1.7V13.4c0-.1,0-.2,0-.3ZM21.8,2l18.8,10.8-5.3,3.1L16.5,5.1l5.3-3.1ZM34.4,18.7v9.9l-4.4,2.5v-9.9l4.4-2.5ZM14.5,6.2l18.7,10.8-4.5,2.7L9.9,8.8l4.6-2.6ZM26.7,20.8l-4.9,2.8L3,12.8l4.9-2.8,18.8,10.8ZM22.8,47.1v-8.3c0-.6-.4-1-1-1s-1,.4-1,1v8.3L2,36.3V14.6l18.8,10.8v2.7c0,.6.4,1,1,1s1-.4,1-1v-2.7l5.2-3v8.7c0,1.1.9,2,2,2,.4,0,.7,0,1-.3l4.4-2.5c.6-.4,1-1,1-1.7v-11l5.2-3v21.7l-18.8,10.8Z"/>
  <path d="M21.8,30.8c-.6,0-1,.4-1,1h0v3.4c0,.6.4,1,1,1s1-.4,1-1v-3.4c0-.6-.4-1-1-1h0Z"/>
</svg>