<?xml version="1.0" encoding="UTF-8"?>
<svg id="Layer_1" xmlns="http://www.w3.org/2000/svg" version="1.1" viewBox="0 0 21 15">
  <!-- Generator: Adobe Illustrator 29.1.0, SVG Export Plug-In . SVG Version: 2.1.0 Build 142)  -->
  <path d="M18.5,0H2.5C1.1,0,0,1.1,0,2.5v10c0,1.4,1.1,2.5,2.5,2.5h16c1.4,0,2.5-1.1,2.5-2.5V2.5c0-1.4-1.1-2.5-2.5-2.5ZM20,12.5c0,.8-.7,1.5-1.5,1.5H2.5c-.8,0-1.5-.7-1.5-1.5V2.5c0-.8.7-1.5,1.5-1.5h16c.8,0,1.5.7,1.5,1.5v10ZM17,7.5c0,.3-.2.5-.5.5H4.5c-.3,0-.5-.2-.5-.5s.2-.5.5-.5h12c.3,0,.5.2.5.5h0ZM4,4.5c0-.3.2-.5.5-.5h2c.3,0,.5.2.5.5s-.2.5-.5.5h-2c-.3,0-.5-.2-.5-.5h0ZM13,10.5c0,.3-.2.5-.5.5H4.5c-.3,0-.5-.2-.5-.5s.2-.5.5-.5h8c.3,0,.5.2.5.5h0Z"/>
</svg>