<?xml version="1.0" encoding="UTF-8"?>
<svg id="Layer_1" xmlns="http://www.w3.org/2000/svg" version="1.1" viewBox="0 0 27 15">
  <!-- Generator: Adobe Illustrator 29.1.0, SVG Export Plug-In . SVG Version: 2.1.0 Build 142)  -->
  <path d="M25.5,0H1.5C.7,0,0,.7,0,1.5v12c0,.8.7,1.5,1.5,1.5h24c.8,0,1.5-.7,1.5-1.5V1.5c0-.8-.7-1.5-1.5-1.5ZM26,13.5c0,.3-.2.5-.5.5H1.5c-.3,0-.5-.2-.5-.5V1.5c0-.3.2-.5.5-.5h24c.3,0,.5.2.5.5v12Z"/>
  <path d="M6.9,4.1c-.2-.2-.5-.2-.7,0,0,0,0,0,0,0l-3,3c-.2.2-.2.5,0,.7,0,0,0,0,0,0l3,3c.2.2.5.2.7,0,0,0,0,0,0,0,.2-.2.2-.5,0-.7,0,0,0,0,0,0l-2.6-2.6,2.6-2.6c.2-.2.2-.5,0-.7,0,0,0,0,0,0Z"/>
  <path d="M20.9,4.1c-.2-.2-.5-.2-.7,0-.2.2-.2.5,0,.7l2.6,2.7-2.6,2.6c-.2.2-.2.5,0,.7,0,0,0,0,0,0,.2.2.5.2.7,0,0,0,0,0,0,0l3-3c.2-.2.2-.5,0-.7,0,0,0,0,0,0l-3-3Z"/>
</svg>