<?xml version="1.0" encoding="UTF-8"?>
<svg id="Layer_1" xmlns="http://www.w3.org/2000/svg" xmlns:svg="http://www.w3.org/2000/svg" xmlns:sodipodi="http://sodipodi.sourceforge.net/DTD/sodipodi-0.dtd" xmlns:rdf="http://www.w3.org/1999/02/22-rdf-syntax-ns#" xmlns:inkscape="http://www.inkscape.org/namespaces/inkscape" xmlns:dc="http://purl.org/dc/elements/1.1/" xmlns:cc="http://creativecommons.org/ns#" version="1.1" viewBox="0 0 7.4 7.4">
  <!-- Generator: Adobe Illustrator 29.1.0, SVG Export Plug-In . SVG Version: 2.1.0 Build 142)  -->
  <path d="M1,0C.5,0,0,.5,0,1v5.4c0,.6.5,1,1,1h5.4c.6,0,1-.5,1-1V1C7.4.5,7,0,6.4,0H1ZM1,.5h5.4c.3,0,.5.2.5.5v5.4c0,.3-.2.5-.5.5H1c-.3,0-.5-.2-.5-.5V1c0-.3.2-.5.5-.5ZM3,1.1h-1.6c-.1,0-.3.1-.3.3v1.6c0,.1,0,.3.2.3h0c.1,0,.3-.1.3-.3,0,0,0,0,0,0v-1s1.9,1.9,1.9,1.9l1.9,1.9h-1c-.1,0-.3.1-.3.3,0,.1.1.3.3.3,0,0,0,0,0,0h1.6c.1,0,.3-.1.3-.3v-1.6c0-.1,0-.3-.2-.3h0c-.1,0-.3.1-.3.3v1s-1.9-1.9-1.9-1.9l-1.9-1.9h1c.1,0,.3-.1.3-.3,0,0,0,0,0,0,0-.1-.1-.3-.3-.3Z"/>
</svg>