<?xml version="1.0" encoding="UTF-8"?>
<svg id="Layer_1" xmlns="http://www.w3.org/2000/svg" version="1.1" viewBox="0 0 19.5 15.8">
  <!-- Generator: Adobe Illustrator 29.1.0, SVG Export Plug-In . SVG Version: 2.1.0 Build 142)  -->
  <defs>
    <style>
      .st0 {
        fill: #cce2ce;
      }
    </style>
  </defs>
  <rect class="st0" width="19.5" height="15.8" rx="1.8" ry="1.8"/>
  <g>
    <path d="M1.7,3.8c0-.3,0-.5,0-.7h.4v.4h0c.1-.2.4-.4.8-.4s.6.2.7.5h0c0-.1.2-.2.3-.3.1-.1.3-.2.5-.2s.8.2.8,1.1v1.4h-.4v-1.4c0-.5-.2-.7-.5-.7s-.4.2-.5.4c0,0,0,.1,0,.2v1.5h-.4v-1.5c0-.4-.2-.7-.5-.7s-.5.2-.5.4c0,0,0,.1,0,.2v1.5h-.4v-1.8Z"/>
    <path d="M6.3,2.5c0,.2-.1.3-.3.3s-.3-.1-.3-.3.1-.3.3-.3.3.1.3.3ZM5.9,5.6v-2.4h.4v2.4h-.4Z"/>
    <path d="M7,3.8c0-.3,0-.5,0-.7h.4v.4h0c.1-.2.4-.5.8-.5s.9.2.9,1v1.4h-.4v-1.4c0-.4-.1-.7-.6-.7s-.5.2-.6.5c0,0,0,.1,0,.2v1.5h-.4v-1.8Z"/>
    <path d="M10.3,2.5v.7h.6v.3h-.6v1.3c0,.3,0,.5.3.5s.2,0,.3,0v.3c0,0-.2,0-.4,0s-.4,0-.5-.2c-.1-.1-.2-.3-.2-.6v-1.3h-.4v-.3h.4v-.6h.4Z"/>
    <path d="M11.6,3.2l.5,1.4c0,.2.1.4.2.5h0c0-.1,0-.3.2-.5l.5-1.4h.5l-.7,1.7c-.3.8-.5,1.3-.8,1.5-.2.2-.4.3-.5.3v-.4s.1-.1.3-.2c.1,0,.3-.3.4-.5,0,0,0,0,0-.1s0,0,0-.1l-.9-2.2h.5Z"/>
  </g>
</svg>